<svg width="3499.1000000000004" height="793.1" xmlns="http://www.w3.org/2000/svg" xmlns:xlink="http://www.w3.org/1999/xlink"><line x1="1004.0" y1="7.5" x2="978.5" y2="32.0" style="stroke:black; stroke-width:1px;" />
<line x1="978.5" y1="39.5" x2="23.0" y2="64.0" style="stroke:black; stroke-width:1px;" />
<line x1="978.5" y1="39.5" x2="57.0" y2="64.0" style="stroke:black; stroke-width:1px;" />
<line x1="978.5" y1="39.5" x2="93.5" y2="64.0" style="stroke:black; stroke-width:1px;" />
<line x1="93.5" y1="71.5" x2="40.0" y2="96.0" style="stroke:black; stroke-width:1px;" />
<line x1="40.0" y1="103.5" x2="40.0" y2="128.0" style="stroke:black; stroke-width:1px;" />
<line x1="93.5" y1="71.5" x2="73.0" y2="96.0" style="stroke:black; stroke-width:1px;" />
<line x1="93.5" y1="71.5" x2="98.5" y2="96.0" style="stroke:black; stroke-width:1px;" />
<line x1="93.5" y1="71.5" x2="123.5" y2="96.0" style="stroke:black; stroke-width:1px;" />
<line x1="123.5" y1="103.5" x2="123.5" y2="128.0" style="stroke:black; stroke-width:1px;" />
<line x1="93.5" y1="71.5" x2="147.0" y2="96.0" style="stroke:black; stroke-width:1px;" />
<line x1="978.5" y1="39.5" x2="230.0" y2="64.0" style="stroke:black; stroke-width:1px;" />
<line x1="230.0" y1="71.5" x2="170.0" y2="96.0" style="stroke:black; stroke-width:1px;" />
<line x1="230.0" y1="71.5" x2="209.5" y2="96.0" style="stroke:black; stroke-width:1px;" />
<line x1="230.0" y1="71.5" x2="241.5" y2="96.0" style="stroke:black; stroke-width:1px;" />
<line x1="230.0" y1="71.5" x2="266.5" y2="96.0" style="stroke:black; stroke-width:1px;" />
<line x1="266.5" y1="103.5" x2="266.5" y2="128.0" style="stroke:black; stroke-width:1px;" />
<line x1="230.0" y1="71.5" x2="290.0" y2="96.0" style="stroke:black; stroke-width:1px;" />
<line x1="978.5" y1="39.5" x2="370.25" y2="64.0" style="stroke:black; stroke-width:1px;" />
<line x1="370.25" y1="71.5" x2="370.25" y2="96.0" style="stroke:black; stroke-width:1px;" />
<line x1="370.25" y1="103.5" x2="324.0" y2="128.0" style="stroke:black; stroke-width:1px;" />
<line x1="370.25" y1="103.5" x2="354.0" y2="128.0" style="stroke:black; stroke-width:1px;" />
<line x1="370.25" y1="103.5" x2="378.0" y2="128.0" style="stroke:black; stroke-width:1px;" />
<line x1="378.0" y1="135.5" x2="378.0" y2="160.0" style="stroke:black; stroke-width:1px;" />
<line x1="370.25" y1="103.5" x2="402.0" y2="128.0" style="stroke:black; stroke-width:1px;" />
<line x1="370.25" y1="103.5" x2="416.5" y2="128.0" style="stroke:black; stroke-width:1px;" />
<line x1="978.5" y1="39.5" x2="464.75" y2="64.0" style="stroke:black; stroke-width:1px;" />
<line x1="464.75" y1="71.5" x2="418.75" y2="96.0" style="stroke:black; stroke-width:1px;" />
<line x1="464.75" y1="71.5" x2="448.25" y2="96.0" style="stroke:black; stroke-width:1px;" />
<line x1="464.75" y1="71.5" x2="472.25" y2="96.0" style="stroke:black; stroke-width:1px;" />
<line x1="472.25" y1="103.5" x2="472.25" y2="128.0" style="stroke:black; stroke-width:1px;" />
<line x1="464.75" y1="71.5" x2="496.25" y2="96.0" style="stroke:black; stroke-width:1px;" />
<line x1="464.75" y1="71.5" x2="510.75" y2="96.0" style="stroke:black; stroke-width:1px;" />
<line x1="978.5" y1="39.5" x2="619.25" y2="64.0" style="stroke:black; stroke-width:1px;" />
<line x1="619.25" y1="71.5" x2="533.75" y2="96.0" style="stroke:black; stroke-width:1px;" />
<line x1="619.25" y1="71.5" x2="598.75" y2="96.0" style="stroke:black; stroke-width:1px;" />
<line x1="619.25" y1="71.5" x2="656.25" y2="96.0" style="stroke:black; stroke-width:1px;" />
<line x1="619.25" y1="71.5" x2="681.25" y2="96.0" style="stroke:black; stroke-width:1px;" />
<line x1="681.25" y1="103.5" x2="681.25" y2="128.0" style="stroke:black; stroke-width:1px;" />
<line x1="619.25" y1="71.5" x2="704.75" y2="96.0" style="stroke:black; stroke-width:1px;" />
<line x1="978.5" y1="39.5" x2="806.25" y2="64.0" style="stroke:black; stroke-width:1px;" />
<line x1="806.25" y1="71.5" x2="727.75" y2="96.0" style="stroke:black; stroke-width:1px;" />
<line x1="806.25" y1="71.5" x2="785.75" y2="96.0" style="stroke:black; stroke-width:1px;" />
<line x1="806.25" y1="71.5" x2="836.25" y2="96.0" style="stroke:black; stroke-width:1px;" />
<line x1="806.25" y1="71.5" x2="861.25" y2="96.0" style="stroke:black; stroke-width:1px;" />
<line x1="861.25" y1="103.5" x2="861.25" y2="128.0" style="stroke:black; stroke-width:1px;" />
<line x1="806.25" y1="71.5" x2="884.75" y2="96.0" style="stroke:black; stroke-width:1px;" />
<line x1="978.5" y1="39.5" x2="994.75" y2="64.0" style="stroke:black; stroke-width:1px;" />
<line x1="994.75" y1="71.5" x2="907.75" y2="96.0" style="stroke:black; stroke-width:1px;" />
<line x1="994.75" y1="71.5" x2="974.25" y2="96.0" style="stroke:black; stroke-width:1px;" />
<line x1="994.75" y1="71.5" x2="1033.25" y2="96.0" style="stroke:black; stroke-width:1px;" />
<line x1="994.75" y1="71.5" x2="1058.25" y2="96.0" style="stroke:black; stroke-width:1px;" />
<line x1="1058.25" y1="103.5" x2="1058.25" y2="128.0" style="stroke:black; stroke-width:1px;" />
<line x1="994.75" y1="71.5" x2="1081.75" y2="96.0" style="stroke:black; stroke-width:1px;" />
<line x1="978.5" y1="39.5" x2="1176.75" y2="64.0" style="stroke:black; stroke-width:1px;" />
<line x1="1176.75" y1="71.5" x2="1104.75" y2="96.0" style="stroke:black; stroke-width:1px;" />
<line x1="1176.75" y1="71.5" x2="1156.25" y2="96.0" style="stroke:black; stroke-width:1px;" />
<line x1="1176.75" y1="71.5" x2="1200.25" y2="96.0" style="stroke:black; stroke-width:1px;" />
<line x1="1176.75" y1="71.5" x2="1225.25" y2="96.0" style="stroke:black; stroke-width:1px;" />
<line x1="1225.25" y1="103.5" x2="1180.25" y2="128.0" style="stroke:black; stroke-width:1px;" />
<line x1="1180.25" y1="135.5" x2="1156.25" y2="160.0" style="stroke:black; stroke-width:1px;" />
<line x1="1180.25" y1="135.5" x2="1180.25" y2="160.0" style="stroke:black; stroke-width:1px;" />
<line x1="1180.25" y1="167.5" x2="1133.25" y2="192.0" style="stroke:black; stroke-width:1px;" />
<line x1="1133.25" y1="199.5" x2="1133.25" y2="224.0" style="stroke:black; stroke-width:1px;" />
<line x1="1180.25" y1="167.5" x2="1180.25" y2="192.0" style="stroke:black; stroke-width:1px;" />
<line x1="1180.25" y1="167.5" x2="1227.25" y2="192.0" style="stroke:black; stroke-width:1px;" />
<line x1="1227.25" y1="199.5" x2="1227.25" y2="224.0" style="stroke:black; stroke-width:1px;" />
<line x1="1180.25" y1="135.5" x2="1204.25" y2="160.0" style="stroke:black; stroke-width:1px;" />
<line x1="1225.25" y1="103.5" x2="1225.25" y2="128.0" style="stroke:black; stroke-width:1px;" />
<line x1="1225.25" y1="103.5" x2="1270.25" y2="128.0" style="stroke:black; stroke-width:1px;" />
<line x1="1270.25" y1="135.5" x2="1270.25" y2="160.0" style="stroke:black; stroke-width:1px;" />
<line x1="1176.75" y1="71.5" x2="1248.75" y2="96.0" style="stroke:black; stroke-width:1px;" />
<line x1="978.5" y1="39.5" x2="1397.5" y2="64.0" style="stroke:black; stroke-width:1px;" />
<line x1="1397.5" y1="71.5" x2="1397.5" y2="96.0" style="stroke:black; stroke-width:1px;" />
<line x1="1397.5" y1="103.5" x2="1351.25" y2="128.0" style="stroke:black; stroke-width:1px;" />
<line x1="1397.5" y1="103.5" x2="1381.25" y2="128.0" style="stroke:black; stroke-width:1px;" />
<line x1="1397.5" y1="103.5" x2="1405.25" y2="128.0" style="stroke:black; stroke-width:1px;" />
<line x1="1405.25" y1="135.5" x2="1405.25" y2="160.0" style="stroke:black; stroke-width:1px;" />
<line x1="1397.5" y1="103.5" x2="1429.25" y2="128.0" style="stroke:black; stroke-width:1px;" />
<line x1="1397.5" y1="103.5" x2="1443.75" y2="128.0" style="stroke:black; stroke-width:1px;" />
<line x1="978.5" y1="39.5" x2="1553.0" y2="64.0" style="stroke:black; stroke-width:1px;" />
<line x1="1553.0" y1="71.5" x2="1553.0" y2="96.0" style="stroke:black; stroke-width:1px;" />
<line x1="1553.0" y1="103.5" x2="1506.75" y2="128.0" style="stroke:black; stroke-width:1px;" />
<line x1="1553.0" y1="103.5" x2="1536.75" y2="128.0" style="stroke:black; stroke-width:1px;" />
<line x1="1553.0" y1="103.5" x2="1560.75" y2="128.0" style="stroke:black; stroke-width:1px;" />
<line x1="1560.75" y1="135.5" x2="1560.75" y2="160.0" style="stroke:black; stroke-width:1px;" />
<line x1="1553.0" y1="103.5" x2="1584.75" y2="128.0" style="stroke:black; stroke-width:1px;" />
<line x1="1553.0" y1="103.5" x2="1599.25" y2="128.0" style="stroke:black; stroke-width:1px;" />
<line x1="978.5" y1="39.5" x2="1675.0" y2="64.0" style="stroke:black; stroke-width:1px;" />
<line x1="1675.0" y1="71.5" x2="1675.0" y2="96.0" style="stroke:black; stroke-width:1px;" />
<line x1="1675.0" y1="103.5" x2="1628.75" y2="128.0" style="stroke:black; stroke-width:1px;" />
<line x1="1675.0" y1="103.5" x2="1658.75" y2="128.0" style="stroke:black; stroke-width:1px;" />
<line x1="1675.0" y1="103.5" x2="1682.75" y2="128.0" style="stroke:black; stroke-width:1px;" />
<line x1="1682.75" y1="135.5" x2="1682.75" y2="160.0" style="stroke:black; stroke-width:1px;" />
<line x1="1675.0" y1="103.5" x2="1706.75" y2="128.0" style="stroke:black; stroke-width:1px;" />
<line x1="1675.0" y1="103.5" x2="1721.25" y2="128.0" style="stroke:black; stroke-width:1px;" />
<line x1="978.5" y1="39.5" x2="1897.5" y2="64.0" style="stroke:black; stroke-width:1px;" />
<line x1="1897.5" y1="71.5" x2="1897.5" y2="96.0" style="stroke:black; stroke-width:1px;" />
<line x1="1897.5" y1="103.5" x2="1757.25" y2="128.0" style="stroke:black; stroke-width:1px;" />
<line x1="1897.5" y1="103.5" x2="1793.75" y2="128.0" style="stroke:black; stroke-width:1px;" />
<line x1="1897.5" y1="103.5" x2="1817.75" y2="128.0" style="stroke:black; stroke-width:1px;" />
<line x1="1817.75" y1="135.5" x2="1817.75" y2="160.0" style="stroke:black; stroke-width:1px;" />
<line x1="1897.5" y1="103.5" x2="1847.5" y2="128.0" style="stroke:black; stroke-width:1px;" />
<line x1="1897.5" y1="103.5" x2="1878.75" y2="128.0" style="stroke:black; stroke-width:1px;" />
<line x1="1878.75" y1="135.5" x2="1842.25" y2="160.0" style="stroke:black; stroke-width:1px;" />
<line x1="1878.75" y1="135.5" x2="1878.75" y2="160.0" style="stroke:black; stroke-width:1px;" />
<line x1="1878.75" y1="167.5" x2="1878.75" y2="192.0" style="stroke:black; stroke-width:1px;" />
<line x1="1878.75" y1="199.5" x2="1832.5" y2="224.0" style="stroke:black; stroke-width:1px;" />
<line x1="1878.75" y1="199.5" x2="1862.5" y2="224.0" style="stroke:black; stroke-width:1px;" />
<line x1="1878.75" y1="199.5" x2="1886.5" y2="224.0" style="stroke:black; stroke-width:1px;" />
<line x1="1886.5" y1="231.5" x2="1886.5" y2="256.0" style="stroke:black; stroke-width:1px;" />
<line x1="1878.75" y1="199.5" x2="1910.5" y2="224.0" style="stroke:black; stroke-width:1px;" />
<line x1="1878.75" y1="199.5" x2="1925.0" y2="224.0" style="stroke:black; stroke-width:1px;" />
<line x1="1878.75" y1="135.5" x2="1915.25" y2="160.0" style="stroke:black; stroke-width:1px;" />
<line x1="1897.5" y1="103.5" x2="1958.25" y2="128.0" style="stroke:black; stroke-width:1px;" />
<line x1="1897.5" y1="103.5" x2="2037.75" y2="128.0" style="stroke:black; stroke-width:1px;" />
<line x1="2037.75" y1="135.5" x2="2001.25" y2="160.0" style="stroke:black; stroke-width:1px;" />
<line x1="2037.75" y1="135.5" x2="2037.75" y2="160.0" style="stroke:black; stroke-width:1px;" />
<line x1="2037.75" y1="167.5" x2="2037.75" y2="192.0" style="stroke:black; stroke-width:1px;" />
<line x1="2037.75" y1="199.5" x2="1991.5" y2="224.0" style="stroke:black; stroke-width:1px;" />
<line x1="2037.75" y1="199.5" x2="2021.5" y2="224.0" style="stroke:black; stroke-width:1px;" />
<line x1="2037.75" y1="199.5" x2="2045.5" y2="224.0" style="stroke:black; stroke-width:1px;" />
<line x1="2045.5" y1="231.5" x2="2045.5" y2="256.0" style="stroke:black; stroke-width:1px;" />
<line x1="2037.75" y1="199.5" x2="2069.5" y2="224.0" style="stroke:black; stroke-width:1px;" />
<line x1="2037.75" y1="199.5" x2="2084.0" y2="224.0" style="stroke:black; stroke-width:1px;" />
<line x1="2037.75" y1="135.5" x2="2074.25" y2="160.0" style="stroke:black; stroke-width:1px;" />
<line x1="978.5" y1="39.5" x2="1934.0" y2="64.0" style="stroke:black; stroke-width:1px;" />
<line x1="1004.0" y1="7.5" x2="1029.5" y2="32.0" style="stroke:black; stroke-width:1px;" />
<rect x="157.5" y="96.0" width="25.0" height="15.0" style="fill:orange; stroke:rgb(0,0,0);" rx="1"/>
<text x="159" y="105" style="font-family:sans-serif;font-size:10px;">
cast
</text>
<rect x="668.25" y="96.0" width="26.0" height="15.0" style="fill:orange; stroke:rgb(0,0,0);" rx="1"/>
<text x="670" y="105" style="font-family:sans-serif;font-size:10px;">
expr
</text>
<rect x="286.5" y="96.0" width="7.0" height="15.0" style="fill:orange; stroke:rgb(0,0,0);" rx="1"/>
<text x="288" y="105" style="font-family:sans-serif;font-size:10px;">
;
</text>
<rect x="1186.75" y="224.0" width="81.0" height="15.0" style="fill:orange; stroke:rgb(0,0,0);" rx="1"/>
<text x="1188" y="233" style="font-family:sans-serif;font-size:10px;">
costoMarketing
</text>
<rect x="1120.25" y="192.0" width="26.0" height="15.0" style="fill:orange; stroke:rgb(0,0,0);" rx="1"/>
<text x="1122" y="201" style="font-family:sans-serif;font-size:10px;">
expr
</text>
<rect x="1490.75" y="160.0" width="140.0" height="15.0" style="fill:orange; stroke:rgb(0,0,0);" rx="1"/>
<text x="1492" y="169" style="font-family:sans-serif;font-size:10px;">
"La·recaudacion·total·fue:"
</text>
<rect x="715.25" y="96.0" width="25.0" height="15.0" style="fill:orange; stroke:rgb(0,0,0);" rx="1"/>
<text x="717" y="105" style="font-family:sans-serif;font-size:10px;">
cast
</text>
<rect x="2070.25" y="160.0" width="8.0" height="15.0" style="fill:orange; stroke:rgb(0,0,0);" rx="1"/>
<text x="2072" y="169" style="font-family:sans-serif;font-size:10px;">
}
</text>
<rect x="663.25" y="128.0" width="36.0" height="15.0" style="fill:orange; stroke:rgb(0,0,0);" rx="1"/>
<text x="665" y="137" style="font-family:sans-serif;font-size:10px;">
50000
</text>
<rect x="1200.25" y="128.0" width="50.0" height="15.0" style="fill:orange; stroke:rgb(0,0,0);" rx="1"/>
<text x="1202" y="137" style="font-family:sans-serif;font-size:10px;">
franchise
</text>
<rect x="1906.5" y="224.0" width="8.0" height="15.0" style="fill:orange; stroke:rgb(0,0,0);" rx="1"/>
<text x="1908" y="233" style="font-family:sans-serif;font-size:10px;">
)
</text>
<rect x="1331.25" y="128.0" width="40.0" height="15.0" style="fill:orange; stroke:rgb(0,0,0);" rx="1"/>
<text x="1333" y="137" style="font-family:sans-serif;font-size:10px;">
subtitle
</text>
<rect x="21.0" y="128.0" width="38.0" height="15.0" style="fill:orange; stroke:rgb(0,0,0);" rx="1"/>
<text x="23" y="137" style="font-family:sans-serif;font-size:10px;">
spoiler
</text>
<rect x="1804.75" y="128.0" width="26.0" height="15.0" style="fill:orange; stroke:rgb(0,0,0);" rx="1"/>
<text x="1806" y="137" style="font-family:sans-serif;font-size:10px;">
expr
</text>
<rect x="59.5" y="96.0" width="27.0" height="15.0" style="fill:orange; stroke:rgb(0,0,0);" rx="1"/>
<text x="61" y="105" style="font-family:sans-serif;font-size:10px;">
exito
</text>
<rect x="831.25" y="96.0" width="10.0" height="15.0" style="fill:orange; stroke:rgb(0,0,0);" rx="1"/>
<text x="833" y="105" style="font-family:sans-serif;font-size:10px;">
=
</text>
<rect x="1257.25" y="128.0" width="26.0" height="15.0" style="fill:orange; stroke:rgb(0,0,0);" rx="1"/>
<text x="1259" y="137" style="font-family:sans-serif;font-size:10px;">
expr
</text>
<rect x="1863.75" y="128.0" width="30.0" height="15.0" style="fill:orange; stroke:rgb(0,0,0);" rx="1"/>
<text x="1865" y="137" style="font-family:sans-serif;font-size:10px;">
block
</text>
<rect x="1123.25" y="96.0" width="66.0" height="15.0" style="fill:orange; stroke:rgb(0,0,0);" rx="1"/>
<text x="1125" y="105" style="font-family:sans-serif;font-size:10px;">
recaudacion
</text>
<rect x="1858.5" y="224.0" width="8.0" height="15.0" style="fill:orange; stroke:rgb(0,0,0);" rx="1"/>
<text x="1860" y="233" style="font-family:sans-serif;font-size:10px;">
(
</text>
<rect x="592.25" y="64.0" width="54.0" height="15.0" style="fill:orange; stroke:rgb(0,0,0);" rx="1"/>
<text x="594" y="73" style="font-family:sans-serif;font-size:10px;">
statement
</text>
<rect x="1153.25" y="192.0" width="54.0" height="15.0" style="fill:orange; stroke:rgb(0,0,0);" rx="1"/>
<text x="1155" y="201" style="font-family:sans-serif;font-size:10px;">
crossover
</text>
<rect x="1881.5" y="96.0" width="32.0" height="15.0" style="fill:orange; stroke:rgb(0,0,0);" rx="1"/>
<text x="1883" y="105" style="font-family:sans-serif;font-size:10px;">
ifStmt
</text>
<rect x="745.25" y="96.0" width="81.0" height="15.0" style="fill:orange; stroke:rgb(0,0,0);" rx="1"/>
<text x="747" y="105" style="font-family:sans-serif;font-size:10px;">
costoMarketing
</text>
<rect x="1009.5" y="32.0" width="40.0" height="15.0" style="fill:orange; stroke:rgb(0,0,0);" rx="1"/>
<text x="1011" y="41" style="font-family:sans-serif;font-size:10px;">
&lt;EOF&gt;
</text>
<rect x="1717.75" y="128.0" width="7.0" height="15.0" style="fill:orange; stroke:rgb(0,0,0);" rx="1"/>
<text x="1719" y="137" style="font-family:sans-serif;font-size:10px;">
;
</text>
<rect x="188.5" y="96.0" width="42.0" height="15.0" style="fill:orange; stroke:rgb(0,0,0);" rx="1"/>
<text x="190" y="105" style="font-family:sans-serif;font-size:10px;">
pelicula
</text>
<rect x="1870.5" y="64.0" width="54.0" height="15.0" style="fill:orange; stroke:rgb(0,0,0);" rx="1"/>
<text x="1872" y="73" style="font-family:sans-serif;font-size:10px;">
statement
</text>
<rect x="1595.75" y="128.0" width="7.0" height="15.0" style="fill:orange; stroke:rgb(0,0,0);" rx="1"/>
<text x="1597" y="137" style="font-family:sans-serif;font-size:10px;">
;
</text>
<rect x="1440.25" y="128.0" width="7.0" height="15.0" style="fill:orange; stroke:rgb(0,0,0);" rx="1"/>
<text x="1442" y="137" style="font-family:sans-serif;font-size:10px;">
;
</text>
<rect x="1392.25" y="128.0" width="26.0" height="15.0" style="fill:orange; stroke:rgb(0,0,0);" rx="1"/>
<text x="1394" y="137" style="font-family:sans-serif;font-size:10px;">
expr
</text>
<rect x="1526.0" y="64.0" width="54.0" height="15.0" style="fill:orange; stroke:rgb(0,0,0);" rx="1"/>
<text x="1528" y="73" style="font-family:sans-serif;font-size:10px;">
statement
</text>
<rect x="1532.75" y="128.0" width="8.0" height="15.0" style="fill:orange; stroke:rgb(0,0,0);" rx="1"/>
<text x="1534" y="137" style="font-family:sans-serif;font-size:10px;">
(
</text>
<rect x="357.0" y="160.0" width="42.0" height="15.0" style="fill:orange; stroke:rgb(0,0,0);" rx="1"/>
<text x="359" y="169" style="font-family:sans-serif;font-size:10px;">
pelicula
</text>
<rect x="1997.25" y="160.0" width="8.0" height="15.0" style="fill:orange; stroke:rgb(0,0,0);" rx="1"/>
<text x="1999" y="169" style="font-family:sans-serif;font-size:10px;">
{
</text>
<rect x="1085.75" y="224.0" width="95.0" height="15.0" style="fill:orange; stroke:rgb(0,0,0);" rx="1"/>
<text x="1087" y="233" style="font-family:sans-serif;font-size:10px;">
presupuestoInicial
</text>
<rect x="1930.0" y="64.0" width="8.0" height="15.0" style="fill:orange; stroke:rgb(0,0,0);" rx="1"/>
<text x="1932" y="73" style="font-family:sans-serif;font-size:10px;">
}
</text>
<rect x="115.5" y="128.0" width="16.0" height="15.0" style="fill:orange; stroke:rgb(0,0,0);" rx="1"/>
<text x="117" y="137" style="font-family:sans-serif;font-size:10px;">
hit
</text>
<rect x="1702.75" y="128.0" width="8.0" height="15.0" style="fill:orange; stroke:rgb(0,0,0);" rx="1"/>
<text x="1704" y="137" style="font-family:sans-serif;font-size:10px;">
)
</text>
<rect x="1028.25" y="96.0" width="10.0" height="15.0" style="fill:orange; stroke:rgb(0,0,0);" rx="1"/>
<text x="1030" y="105" style="font-family:sans-serif;font-size:10px;">
=
</text>
<rect x="1911.25" y="160.0" width="8.0" height="15.0" style="fill:orange; stroke:rgb(0,0,0);" rx="1"/>
<text x="1913" y="169" style="font-family:sans-serif;font-size:10px;">
}
</text>
<rect x="1580.75" y="128.0" width="8.0" height="15.0" style="fill:orange; stroke:rgb(0,0,0);" rx="1"/>
<text x="1582" y="137" style="font-family:sans-serif;font-size:10px;">
)
</text>
<rect x="1669.75" y="128.0" width="26.0" height="15.0" style="fill:orange; stroke:rgb(0,0,0);" rx="1"/>
<text x="1671" y="137" style="font-family:sans-serif;font-size:10px;">
expr
</text>
<rect x="-1.5" y="64.0" width="49.0" height="15.0" style="fill:orange; stroke:rgb(0,0,0);" rx="1"/>
<text x="1" y="73" style="font-family:sans-serif;font-size:10px;">
premiere
</text>
<rect x="365.0" y="128.0" width="26.0" height="15.0" style="fill:orange; stroke:rgb(0,0,0);" rx="1"/>
<text x="367" y="137" style="font-family:sans-serif;font-size:10px;">
expr
</text>
<rect x="1370.5" y="64.0" width="54.0" height="15.0" style="fill:orange; stroke:rgb(0,0,0);" rx="1"/>
<text x="1372" y="73" style="font-family:sans-serif;font-size:10px;">
statement
</text>
<rect x="1851.75" y="160.0" width="54.0" height="15.0" style="fill:orange; stroke:rgb(0,0,0);" rx="1"/>
<text x="1853" y="169" style="font-family:sans-serif;font-size:10px;">
statement
</text>
<rect x="27.0" y="96.0" width="26.0" height="15.0" style="fill:orange; stroke:rgb(0,0,0);" rx="1"/>
<text x="29" y="105" style="font-family:sans-serif;font-size:10px;">
type
</text>
<rect x="2010.75" y="160.0" width="54.0" height="15.0" style="fill:orange; stroke:rgb(0,0,0);" rx="1"/>
<text x="2012" y="169" style="font-family:sans-serif;font-size:10px;">
statement
</text>
<rect x="304.0" y="128.0" width="40.0" height="15.0" style="fill:orange; stroke:rgb(0,0,0);" rx="1"/>
<text x="306" y="137" style="font-family:sans-serif;font-size:10px;">
subtitle
</text>
<rect x="1968.0" y="256.0" width="155.0" height="15.0" style="fill:orange; stroke:rgb(0,0,0);" rx="1"/>
<text x="1970" y="265" style="font-family:sans-serif;font-size:10px;">
"La·pelicula·fue·un·fracaso..."
</text>
<rect x="343.25" y="64.0" width="54.0" height="15.0" style="fill:orange; stroke:rgb(0,0,0);" rx="1"/>
<text x="345" y="73" style="font-family:sans-serif;font-size:10px;">
statement
</text>
<rect x="1803.5" y="256.0" width="166.0" height="15.0" style="fill:orange; stroke:rgb(0,0,0);" rx="1"/>
<text x="1805" y="265" style="font-family:sans-serif;font-size:10px;">
"¡La·pelicula·rompio·la·taquilla!"
</text>
<rect x="779.25" y="64.0" width="54.0" height="15.0" style="fill:orange; stroke:rgb(0,0,0);" rx="1"/>
<text x="781" y="73" style="font-family:sans-serif;font-size:10px;">
statement
</text>
<rect x="1045.25" y="96.0" width="26.0" height="15.0" style="fill:orange; stroke:rgb(0,0,0);" rx="1"/>
<text x="1047" y="105" style="font-family:sans-serif;font-size:10px;">
expr
</text>
<rect x="1149.75" y="64.0" width="54.0" height="15.0" style="fill:orange; stroke:rgb(0,0,0);" rx="1"/>
<text x="1151" y="73" style="font-family:sans-serif;font-size:10px;">
statement
</text>
<rect x="701.25" y="96.0" width="7.0" height="15.0" style="fill:orange; stroke:rgb(0,0,0);" rx="1"/>
<text x="703" y="105" style="font-family:sans-serif;font-size:10px;">
;
</text>
<rect x="345.75" y="96.0" width="49.0" height="15.0" style="fill:orange; stroke:rgb(0,0,0);" rx="1"/>
<text x="347" y="105" style="font-family:sans-serif;font-size:10px;">
printStmt
</text>
<rect x="895.25" y="96.0" width="25.0" height="15.0" style="fill:orange; stroke:rgb(0,0,0);" rx="1"/>
<text x="897" y="105" style="font-family:sans-serif;font-size:10px;">
cast
</text>
<rect x="444.25" y="96.0" width="8.0" height="15.0" style="fill:orange; stroke:rgb(0,0,0);" rx="1"/>
<text x="446" y="105" style="font-family:sans-serif;font-size:10px;">
(
</text>
<rect x="1245.25" y="96.0" width="7.0" height="15.0" style="fill:orange; stroke:rgb(0,0,0);" rx="1"/>
<text x="1247" y="105" style="font-family:sans-serif;font-size:10px;">
;
</text>
<rect x="1318.25" y="160.0" width="174.0" height="15.0" style="fill:orange; stroke:rgb(0,0,0);" rx="1"/>
<text x="1320" y="169" style="font-family:sans-serif;font-size:10px;">
"---·REPORTE·DE·TAQUILLA·---"
</text>
<rect x="1528.5" y="96.0" width="49.0" height="15.0" style="fill:orange; stroke:rgb(0,0,0);" rx="1"/>
<text x="1530" y="105" style="font-family:sans-serif;font-size:10px;">
printStmt
</text>
<rect x="1649.75" y="160.0" width="66.0" height="15.0" style="fill:orange; stroke:rgb(0,0,0);" rx="1"/>
<text x="1651" y="169" style="font-family:sans-serif;font-size:10px;">
recaudacion
</text>
<rect x="110.5" y="96.0" width="26.0" height="15.0" style="fill:orange; stroke:rgb(0,0,0);" rx="1"/>
<text x="112" y="105" style="font-family:sans-serif;font-size:10px;">
expr
</text>
<rect x="1608.75" y="128.0" width="40.0" height="15.0" style="fill:orange; stroke:rgb(0,0,0);" rx="1"/>
<text x="1610" y="137" style="font-family:sans-serif;font-size:10px;">
subtitle
</text>
<rect x="521.25" y="96.0" width="25.0" height="15.0" style="fill:orange; stroke:rgb(0,0,0);" rx="1"/>
<text x="523" y="105" style="font-family:sans-serif;font-size:10px;">
cast
</text>
<rect x="1167.25" y="128.0" width="26.0" height="15.0" style="fill:orange; stroke:rgb(0,0,0);" rx="1"/>
<text x="1169" y="137" style="font-family:sans-serif;font-size:10px;">
expr
</text>
<rect x="651.25" y="96.0" width="10.0" height="15.0" style="fill:orange; stroke:rgb(0,0,0);" rx="1"/>
<text x="653" y="105" style="font-family:sans-serif;font-size:10px;">
=
</text>
<rect x="1873.5" y="224.0" width="26.0" height="15.0" style="fill:orange; stroke:rgb(0,0,0);" rx="1"/>
<text x="1875" y="233" style="font-family:sans-serif;font-size:10px;">
expr
</text>
<rect x="2017.5" y="224.0" width="8.0" height="15.0" style="fill:orange; stroke:rgb(0,0,0);" rx="1"/>
<text x="2019" y="233" style="font-family:sans-serif;font-size:10px;">
(
</text>
<rect x="1654.75" y="128.0" width="8.0" height="15.0" style="fill:orange; stroke:rgb(0,0,0);" rx="1"/>
<text x="1656" y="137" style="font-family:sans-serif;font-size:10px;">
(
</text>
<rect x="66.5" y="64.0" width="54.0" height="15.0" style="fill:orange; stroke:rgb(0,0,0);" rx="1"/>
<text x="68" y="73" style="font-family:sans-serif;font-size:10px;">
statement
</text>
<rect x="233.5" y="128.0" width="66.0" height="15.0" style="fill:orange; stroke:rgb(0,0,0);" rx="1"/>
<text x="235" y="137" style="font-family:sans-serif;font-size:10px;">
"The·Matrix"
</text>
<rect x="967.75" y="64.0" width="54.0" height="15.0" style="fill:orange; stroke:rgb(0,0,0);" rx="1"/>
<text x="969" y="73" style="font-family:sans-serif;font-size:10px;">
statement
</text>
<rect x="2080.5" y="224.0" width="7.0" height="15.0" style="fill:orange; stroke:rgb(0,0,0);" rx="1"/>
<text x="2082" y="233" style="font-family:sans-serif;font-size:10px;">
;
</text>
<rect x="2022.75" y="128.0" width="30.0" height="15.0" style="fill:orange; stroke:rgb(0,0,0);" rx="1"/>
<text x="2024" y="137" style="font-family:sans-serif;font-size:10px;">
block
</text>
<rect x="1732.25" y="128.0" width="50.0" height="15.0" style="fill:orange; stroke:rgb(0,0,0);" rx="1"/>
<text x="1734" y="137" style="font-family:sans-serif;font-size:10px;">
plot_twist
</text>
<rect x="843.25" y="128.0" width="36.0" height="15.0" style="fill:orange; stroke:rgb(0,0,0);" rx="1"/>
<text x="845" y="137" style="font-family:sans-serif;font-size:10px;">
20000
</text>
<rect x="93.5" y="96.0" width="10.0" height="15.0" style="fill:orange; stroke:rgb(0,0,0);" rx="1"/>
<text x="95" y="105" style="font-family:sans-serif;font-size:10px;">
=
</text>
<rect x="1167.25" y="160.0" width="26.0" height="15.0" style="fill:orange; stroke:rgb(0,0,0);" rx="1"/>
<text x="1169" y="169" style="font-family:sans-serif;font-size:10px;">
expr
</text>
<rect x="1913.25" y="128.0" width="90.0" height="15.0" style="fill:orange; stroke:rgb(0,0,0);" rx="1"/>
<text x="1915" y="137" style="font-family:sans-serif;font-size:10px;">
alternate_ending
</text>
<rect x="881.25" y="96.0" width="7.0" height="15.0" style="fill:orange; stroke:rgb(0,0,0);" rx="1"/>
<text x="883" y="105" style="font-family:sans-serif;font-size:10px;">
;
</text>
<rect x="981.0" y="0.0" width="46.0" height="15.0" style="fill:orange; stroke:rgb(0,0,0);" rx="1"/>
<text x="983" y="9" style="font-family:sans-serif;font-size:10px;">
program
</text>
<rect x="1650.5" y="96.0" width="49.0" height="15.0" style="fill:orange; stroke:rgb(0,0,0);" rx="1"/>
<text x="1652" y="105" style="font-family:sans-serif;font-size:10px;">
printStmt
</text>
<rect x="2032.5" y="224.0" width="26.0" height="15.0" style="fill:orange; stroke:rgb(0,0,0);" rx="1"/>
<text x="2034" y="233" style="font-family:sans-serif;font-size:10px;">
expr
</text>
<rect x="1195.25" y="96.0" width="10.0" height="15.0" style="fill:orange; stroke:rgb(0,0,0);" rx="1"/>
<text x="1197" y="105" style="font-family:sans-serif;font-size:10px;">
=
</text>
<rect x="492.25" y="96.0" width="8.0" height="15.0" style="fill:orange; stroke:rgb(0,0,0);" rx="1"/>
<text x="494" y="105" style="font-family:sans-serif;font-size:10px;">
)
</text>
<rect x="1200.25" y="160.0" width="8.0" height="15.0" style="fill:orange; stroke:rgb(0,0,0);" rx="1"/>
<text x="1202" y="169" style="font-family:sans-serif;font-size:10px;">
)
</text>
<rect x="1214.25" y="192.0" width="26.0" height="15.0" style="fill:orange; stroke:rgb(0,0,0);" rx="1"/>
<text x="1216" y="201" style="font-family:sans-serif;font-size:10px;">
expr
</text>
<rect x="451.25" y="128.0" width="42.0" height="15.0" style="fill:orange; stroke:rgb(0,0,0);" rx="1"/>
<text x="453" y="137" style="font-family:sans-serif;font-size:10px;">
director
</text>
<rect x="1373.0" y="96.0" width="49.0" height="15.0" style="fill:orange; stroke:rgb(0,0,0);" rx="1"/>
<text x="1375" y="105" style="font-family:sans-serif;font-size:10px;">
printStmt
</text>
<rect x="1921.5" y="224.0" width="7.0" height="15.0" style="fill:orange; stroke:rgb(0,0,0);" rx="1"/>
<text x="1923" y="233" style="font-family:sans-serif;font-size:10px;">
;
</text>
<rect x="398.0" y="128.0" width="8.0" height="15.0" style="fill:orange; stroke:rgb(0,0,0);" rx="1"/>
<text x="400" y="137" style="font-family:sans-serif;font-size:10px;">
)
</text>
<rect x="203.0" y="64.0" width="54.0" height="15.0" style="fill:orange; stroke:rgb(0,0,0);" rx="1"/>
<text x="205" y="73" style="font-family:sans-serif;font-size:10px;">
statement
</text>
<rect x="143.5" y="96.0" width="7.0" height="15.0" style="fill:orange; stroke:rgb(0,0,0);" rx="1"/>
<text x="145" y="105" style="font-family:sans-serif;font-size:10px;">
;
</text>
<rect x="1854.25" y="192.0" width="49.0" height="15.0" style="fill:orange; stroke:rgb(0,0,0);" rx="1"/>
<text x="1856" y="201" style="font-family:sans-serif;font-size:10px;">
printStmt
</text>
<rect x="53.0" y="64.0" width="8.0" height="15.0" style="fill:orange; stroke:rgb(0,0,0);" rx="1"/>
<text x="55" y="73" style="font-family:sans-serif;font-size:10px;">
{
</text>
<rect x="1812.5" y="224.0" width="40.0" height="15.0" style="fill:orange; stroke:rgb(0,0,0);" rx="1"/>
<text x="1814" y="233" style="font-family:sans-serif;font-size:10px;">
subtitle
</text>
<rect x="413.0" y="128.0" width="7.0" height="15.0" style="fill:orange; stroke:rgb(0,0,0);" rx="1"/>
<text x="415" y="137" style="font-family:sans-serif;font-size:10px;">
;
</text>
<rect x="2013.25" y="192.0" width="49.0" height="15.0" style="fill:orange; stroke:rgb(0,0,0);" rx="1"/>
<text x="2015" y="201" style="font-family:sans-serif;font-size:10px;">
printStmt
</text>
<rect x="459.25" y="96.0" width="26.0" height="15.0" style="fill:orange; stroke:rgb(0,0,0);" rx="1"/>
<text x="461" y="105" style="font-family:sans-serif;font-size:10px;">
expr
</text>
<rect x="1804.25" y="160.0" width="27.0" height="15.0" style="fill:orange; stroke:rgb(0,0,0);" rx="1"/>
<text x="1806" y="169" style="font-family:sans-serif;font-size:10px;">
exito
</text>
<rect x="1092.25" y="96.0" width="25.0" height="15.0" style="fill:orange; stroke:rgb(0,0,0);" rx="1"/>
<text x="1094" y="105" style="font-family:sans-serif;font-size:10px;">
cast
</text>
<rect x="1838.25" y="160.0" width="8.0" height="15.0" style="fill:orange; stroke:rgb(0,0,0);" rx="1"/>
<text x="1840" y="169" style="font-family:sans-serif;font-size:10px;">
{
</text>
<rect x="1078.25" y="96.0" width="7.0" height="15.0" style="fill:orange; stroke:rgb(0,0,0);" rx="1"/>
<text x="1080" y="105" style="font-family:sans-serif;font-size:10px;">
;
</text>
<rect x="507.25" y="96.0" width="7.0" height="15.0" style="fill:orange; stroke:rgb(0,0,0);" rx="1"/>
<text x="509" y="105" style="font-family:sans-serif;font-size:10px;">
;
</text>
<rect x="2065.5" y="224.0" width="8.0" height="15.0" style="fill:orange; stroke:rgb(0,0,0);" rx="1"/>
<text x="2067" y="233" style="font-family:sans-serif;font-size:10px;">
)
</text>
<rect x="1486.75" y="128.0" width="40.0" height="15.0" style="fill:orange; stroke:rgb(0,0,0);" rx="1"/>
<text x="1488" y="137" style="font-family:sans-serif;font-size:10px;">
subtitle
</text>
<rect x="1843.5" y="128.0" width="8.0" height="15.0" style="fill:orange; stroke:rgb(0,0,0);" rx="1"/>
<text x="1845" y="137" style="font-family:sans-serif;font-size:10px;">
)
</text>
<rect x="1425.25" y="128.0" width="8.0" height="15.0" style="fill:orange; stroke:rgb(0,0,0);" rx="1"/>
<text x="1427" y="137" style="font-family:sans-serif;font-size:10px;">
)
</text>
<rect x="437.75" y="64.0" width="54.0" height="15.0" style="fill:orange; stroke:rgb(0,0,0);" rx="1"/>
<text x="439" y="73" style="font-family:sans-serif;font-size:10px;">
statement
</text>
<rect x="1220.25" y="160.0" width="100.0" height="15.0" style="fill:orange; stroke:rgb(0,0,0);" rx="1"/>
<text x="1222" y="169" style="font-family:sans-serif;font-size:10px;">
gananciaPorBoleto
</text>
<rect x="1547.75" y="128.0" width="26.0" height="15.0" style="fill:orange; stroke:rgb(0,0,0);" rx="1"/>
<text x="1549" y="137" style="font-family:sans-serif;font-size:10px;">
expr
</text>
<rect x="350.0" y="128.0" width="8.0" height="15.0" style="fill:orange; stroke:rgb(0,0,0);" rx="1"/>
<text x="352" y="137" style="font-family:sans-serif;font-size:10px;">
(
</text>
<rect x="1648.0" y="64.0" width="54.0" height="15.0" style="fill:orange; stroke:rgb(0,0,0);" rx="1"/>
<text x="1650" y="73" style="font-family:sans-serif;font-size:10px;">
statement
</text>
<rect x="1789.75" y="128.0" width="8.0" height="15.0" style="fill:orange; stroke:rgb(0,0,0);" rx="1"/>
<text x="1791" y="137" style="font-family:sans-serif;font-size:10px;">
(
</text>
<rect x="551.25" y="96.0" width="95.0" height="15.0" style="fill:orange; stroke:rgb(0,0,0);" rx="1"/>
<text x="553" y="105" style="font-family:sans-serif;font-size:10px;">
presupuestoInicial
</text>
<rect x="253.5" y="96.0" width="26.0" height="15.0" style="fill:orange; stroke:rgb(0,0,0);" rx="1"/>
<text x="255" y="105" style="font-family:sans-serif;font-size:10px;">
expr
</text>
<rect x="848.25" y="96.0" width="26.0" height="15.0" style="fill:orange; stroke:rgb(0,0,0);" rx="1"/>
<text x="850" y="105" style="font-family:sans-serif;font-size:10px;">
expr
</text>
<rect x="1049.75" y="128.0" width="17.0" height="15.0" style="fill:orange; stroke:rgb(0,0,0);" rx="1"/>
<text x="1051" y="137" style="font-family:sans-serif;font-size:10px;">
10
</text>
<rect x="1377.25" y="128.0" width="8.0" height="15.0" style="fill:orange; stroke:rgb(0,0,0);" rx="1"/>
<text x="1379" y="137" style="font-family:sans-serif;font-size:10px;">
(
</text>
<rect x="1212.25" y="96.0" width="26.0" height="15.0" style="fill:orange; stroke:rgb(0,0,0);" rx="1"/>
<text x="1214" y="105" style="font-family:sans-serif;font-size:10px;">
expr
</text>
<rect x="951.0" y="32.0" width="55.0" height="15.0" style="fill:orange; stroke:rgb(0,0,0);" rx="1"/>
<text x="953" y="41" style="font-family:sans-serif;font-size:10px;">
mainBlock
</text>
<rect x="399.75" y="96.0" width="38.0" height="15.0" style="fill:orange; stroke:rgb(0,0,0);" rx="1"/>
<text x="401" y="105" style="font-family:sans-serif;font-size:10px;">
credits
</text>
<rect x="1152.25" y="160.0" width="8.0" height="15.0" style="fill:orange; stroke:rgb(0,0,0);" rx="1"/>
<text x="1154" y="169" style="font-family:sans-serif;font-size:10px;">
(
</text>
<rect x="236.5" y="96.0" width="10.0" height="15.0" style="fill:orange; stroke:rgb(0,0,0);" rx="1"/>
<text x="238" y="105" style="font-family:sans-serif;font-size:10px;">
=
</text>
<rect x="1971.5" y="224.0" width="40.0" height="15.0" style="fill:orange; stroke:rgb(0,0,0);" rx="1"/>
<text x="1973" y="233" style="font-family:sans-serif;font-size:10px;">
subtitle
</text>
<rect x="924.25" y="96.0" width="100.0" height="15.0" style="fill:orange; stroke:rgb(0,0,0);" rx="1"/>
<text x="926" y="105" style="font-family:sans-serif;font-size:10px;">
gananciaPorBoleto
</text>
</svg>